<svg xmlns="http://www.w3.org/2000/svg" viewBox="0 0 323.9 75.48"><defs><style>.cls-1{fill:#fff;}</style></defs><g id="Layer_2" data-name="Layer 2"><g id="Layer_1-2" data-name="Layer 1"><path class="cls-1" d="M20.94,13.13a32.52,32.52,0,0,1,10.55,1.71c.78-6,3-7.73,9-7.73a15.09,15.09,0,0,1,3.2.31v7.42a21.07,21.07,0,0,0-3-.39c-2.19,0-4.3,1-4.61,3.44a10.22,10.22,0,0,1,3.12,7.73c0,9.38-10.08,12.11-17.65,12.11a46.26,46.26,0,0,1-6.65-.54,3.36,3.36,0,0,0-1.95,2.89,2.9,2.9,0,0,0,2.27,3.05,50.89,50.89,0,0,0,8.51.78l5,.23c7,.39,14.77,1.88,14.77,10.55,0,5.31-3.83,8.91-8.36,10.78-4.3,1.8-9.92,2.11-14.61,2.11C14.14,67.58,0,67.35,0,58.36,0,54.3,3.28,52,6.88,51.17c-3-1.48-5.08-3.59-5.08-7.11,0-4.92,4-7.19,8-8.82-4.3-1.64-7-4.93-7-9.69C2.73,15.94,13.2,13.13,20.94,13.13ZM28.28,54c-2.73-.23-10.31-.23-15.55-.62a3.51,3.51,0,0,0-2.5,3.2c0,1.88,1.26,2.74,2.89,3.2a35.29,35.29,0,0,0,8.6.79c2.81,0,10.78.23,10.78-3.83C32.5,54.61,29.92,54.14,28.28,54ZM14.45,25.39c0,3.91,2.5,6,6.33,6s6.88-2,6.88-6.1-3.28-5.86-6.88-5.86S14.45,21.64,14.45,25.39Z"/><path class="cls-1" d="M57.41,13.91v7.42h.16c1.17-4.22,3.52-8.6,8.52-8.2l2,.15V24.76c-8.75-.46-9.85,6.65-9.85,13.68V53.6H46.71V13.91Z"/><path class="cls-1" d="M81.78,35.7l-.08,2c0,4.69,2.66,8.51,7.66,8.51,3.51,0,7-2.57,7-6.25L107,40.7c0,2-4.61,13.68-18,13.68-11.88,0-19.61-8.29-19.61-20.08s7-21.17,19.29-21.17a18.08,18.08,0,0,1,14.54,7c3.28,4.53,4.14,10.15,4.06,15.54Zm14-6.79c-.23-4.3-1.63-8.29-6.63-8.29s-7,3.76-7.43,8.29Z"/><path class="cls-1" d="M122.71,35.7l-.08,2c0,4.69,2.66,8.51,7.66,8.51,3.51,0,7-2.57,7-6.25l10.62.78c0,2-4.61,13.68-18,13.68-11.88,0-19.61-8.29-19.61-20.08s6.95-21.17,19.29-21.17a18.06,18.06,0,0,1,14.53,7c3.29,4.53,4.15,10.15,4.07,15.54Zm14-6.79c-.23-4.3-1.64-8.29-6.64-8.29s-7,3.76-7.42,8.29Z"/><path class="cls-1" d="M151.61,13.91h10.85v6.71h.16c2.34-5.07,5.62-7.49,11.41-7.49,3.75,0,7.42,1.17,9.76,4.37,2.19,3,2.19,8,2.19,11.56V53.6H174.5V32.27c0-4.07.54-10-5.24-10a5.49,5.49,0,0,0-4.84,3,14.38,14.38,0,0,0-1.33,7V53.6H151.61Z"/><path class="cls-1" d="M238.32,53.6H226l-8.75-35.47h-.15L208.63,53.6H196.44L182.61,0h12.81l8.21,36.09h.15L212.46,0H224l9,36.09h.16l.47-2.34L241.44,0h10.31Z"/><path class="cls-1" d="M259.55,35.7l-.08,2c0,4.69,2.66,8.51,7.66,8.51,3.51,0,7-2.57,7-6.25l10.62.78c0,2-4.61,13.68-18,13.68-11.88,0-19.61-8.29-19.61-20.08s7-21.17,19.29-21.17a18.06,18.06,0,0,1,14.53,7c3.29,4.53,4.15,10.15,4.07,15.54Zm14-6.79c-.23-4.3-1.64-8.29-6.64-8.29s-7,3.76-7.42,8.29Z"/><path class="cls-1" d="M287.35,0h11.49V18.91h.31c2-3.91,5.23-5.78,9.69-5.78,11.33,0,14.76,11.25,14.76,20.62,0,10.39-4.14,20.63-16.09,20.63-5.7,0-8.44-2.11-11.33-6.88-1.4,1.72-1.87,4-2.58,6.1h-6.25ZM299,37c0,2.19.08,4.69,1.33,6.65a5.56,5.56,0,0,0,4.85,2.73c6.48,0,6.48-8.28,6.48-12.58,0-4.45,0-12.73-6.33-12.73-5.54,0-6.33,6-6.33,10.23Z"/><path class="cls-1" d="M213.12,68c-.52,3.51-2.93,4.56-5,4.56-4.45,0-5.31-4.56-5.31-6.84,0-3.44,1.59-6.83,5.39-6.83,2.83,0,4.48,1.79,5,4.7l-2.23.24c-.24-1.06-.7-3-2.71-3-2.66,0-2.82,3.65-2.82,4.84,0,3.8,1.51,4.89,2.9,4.89a2.8,2.8,0,0,0,2.63-2.8Z"/><path class="cls-1" d="M221.57,72.54c-4.18,0-5.6-3.88-5.6-6.88,0-3.58,2-6.79,5.7-6.79s5.59,3.27,5.59,6.83C227.26,69.76,225.05,72.54,221.57,72.54ZM224,62.26a2.46,2.46,0,0,0-2.38-1.46c-2.51,0-3.07,2.57-3.07,4.94,0,1.57.26,4.87,3,4.87a2.78,2.78,0,0,0,2.48-1.53,7.09,7.09,0,0,0,.6-3.4A8.36,8.36,0,0,0,224,62.26Z"/><path class="cls-1" d="M241.18,72.34H239l-5.19-8.47c-.14-.22-.62-1.24-.74-1.47v9.94h-1.91V59.07h2.65l4.65,7.82c0,.1.36.68.82,1.55V59.07h1.91Z"/><path class="cls-1" d="M255.42,68c-.52,3.51-2.93,4.56-5,4.56-4.46,0-5.31-4.56-5.31-6.84,0-3.44,1.59-6.83,5.39-6.83,2.83,0,4.48,1.79,5,4.7l-2.23.24c-.24-1.06-.7-3-2.71-3-2.66,0-2.82,3.65-2.82,4.84,0,3.8,1.51,4.89,2.9,4.89a2.81,2.81,0,0,0,2.63-2.8Z"/><path class="cls-1" d="M259,72.34V59.07h2.39V72.34Z"/><path class="cls-1" d="M276,72.34H273.8l-5.19-8.47c-.14-.22-.62-1.24-.74-1.47v9.94H266V59.07h2.65l4.65,7.82c0,.1.36.68.82,1.55V59.07H276Z"/><path class="cls-1" d="M290.6,72.34h-2.18l-5.2-8.47c-.14-.22-.61-1.24-.73-1.47v9.94h-1.91V59.07h2.64l4.66,7.82c0,.1.36.68.81,1.55V59.07h1.91Z"/><path class="cls-1" d="M295.19,72.34V59.07h2.39V72.34Z"/><path class="cls-1" d="M304.25,72.34V61.12h-3.52v-2h9.61v2h-3.52V72.34Z"/><path class="cls-1" d="M317.08,72.34V66.75l-4.52-7.68h2.89l3.14,5.47,3-5.47h2.31l-4.3,7.68v5.59Z"/><path class="cls-1" d="M184.16,72.34V60.59h2v4.25a2.54,2.54,0,0,1,2.41-1.59c1.64,0,3.32,1.36,3.32,4.58a5.67,5.67,0,0,1-1,3.42,3.16,3.16,0,0,1-5.27-.32L185,72.34Zm2-3.7c0,1.66.81,2.28,1.8,2.28,1.79,0,1.85-2.19,1.86-3.14s-.14-2.84-1.81-2.84c-.85,0-1.85.62-1.85,2.4Z"/><path class="cls-1" d="M196.47,73.56c-.58,1.71-1.57,1.92-2.36,1.92-.13,0-.51,0-1.13-.07V73.86c1.11,0,1.57,0,1.94-.25a2.8,2.8,0,0,0,.54-1.25,5.44,5.44,0,0,0-.17-.54l-3-8.16h2l2.12,5.74,1.81-5.74h1.57Z"/></g></g></svg>