<svg xmlns="http://www.w3.org/2000/svg" preserveAspectRatio="none" viewBox="0 0 1182 396" role="img" aria-hidden="true"><path id="leafmask--desktop" d="M393.277 4.276l166.4-1.312c67.962-1.416 135.345 3.8 202.95 6.2 30.902 1.088 59.765 1.94 89.485-1.502 30.337-3.514 59.2-8.138 90.833-7.61l150.79 4.744c12.008.465 24.252.958 35.367 3.237 69.495 14.26 47.526 95.9 46.53 124.41-1.474 42.2-1.857 84.4-2.142 126.616-.15 22.633-.297 45.334 5.213 67.805 5.163 21.07 10.936 50.665-39.195 60.558-11.996 2.367-25.208 2.655-38.123 2.912L893.16 393.58l-406.86 2.23c-125.925.075-253.285 1.76-378.35-6.47-28.106-1.85-81.046 3.29-96.157-11.673-6.92-6.85-6.55-14.857-6.033-22.5C11.47 271.097 1.72 187.13.6 103.086.36 85.993.483 68.9.912 51.81c.215-8.518-4.723-28.062 6.38-35.324 5.852-3.88 16.635-4.896 26.397-5.5 118.1-7.3 239.19-6.682 359.59-6.71" fill="#33C2A8" fill-rule="evenodd"></path></svg>
