<svg width="111" height="111" viewBox="0 0 111 111" fill="none" xmlns="http://www.w3.org/2000/svg">
<path d="M27.3396 21C23.6239 21 20.1918 22.837 18.1253 25.8978L10.3907 37.3295C9.4804 38.6774 8.99632 40.2627 9.00005 41.8835V60.1022C8.99492 61.323 9.40276 62.5104 10.1587 63.4756C10.9146 64.4408 11.9753 65.1284 13.1719 65.429L20.3865 67.2357C20.9053 69.7073 22.2681 71.9272 24.2462 73.523C26.2242 75.1188 28.6971 75.9934 31.25 76C36.4009 76 40.7007 72.4772 41.9412 67.75H67.8401C69.0806 72.4772 73.3804 76 78.5313 76C83.6821 76 87.9819 72.4772 89.2224 67.75H92.4375C95.4802 67.75 98 65.2585 98 62.25V52.196C97.9973 49.7448 97.1663 47.3648 95.6389 45.434C94.1116 43.5033 91.9755 42.1326 89.57 41.5397L74.5318 37.7585L63.6683 24.9545C62.629 23.718 61.3274 22.7228 59.8556 22.0394C58.3839 21.356 56.7781 21.0011 55.1521 21H27.3396ZM27.3396 26.5H39.5938V37.5H16.9961L22.7339 28.9915V28.9062C23.2378 28.1579 23.9227 27.5458 24.7265 27.1256C25.5304 26.7054 26.4276 26.4904 27.3368 26.5H27.3396ZM45.1563 26.5H55.1521C56.8014 26.5 58.3561 27.2205 59.4102 28.4772L67.0586 37.5H45.1563V26.5ZM14.5625 43H72.6211L88.2656 46.8665C89.4661 47.161 90.531 47.8474 91.2881 48.8145C92.0451 49.7817 92.4501 50.9731 92.4375 52.196V62.25H89.2224C87.9819 57.5228 83.6821 54 78.5313 54C73.3804 54 69.0806 57.5228 67.8401 62.25H41.9412C40.7007 57.5228 36.4009 54 31.25 54C26.3189 54 22.1776 57.223 20.7341 61.6478L14.5625 60.105V43ZM31.25 59.5C34.3567 59.5 36.8125 61.9282 36.8125 65C36.8125 68.0718 34.3567 70.5 31.25 70.5C28.1434 70.5 25.6875 68.0718 25.6875 65C25.6875 61.9282 28.1434 59.5 31.25 59.5ZM78.5313 59.5C81.6379 59.5 84.0938 61.9282 84.0938 65C84.0938 68.0718 81.6379 70.5 78.5313 70.5C75.4246 70.5 72.9688 68.0718 72.9688 65C72.9688 61.9282 75.4246 59.5 78.5313 59.5Z" fill="white"/>
<line x1="24.5" y1="90.5" x2="82.5" y2="90.5" stroke="white" stroke-width="5" stroke-linecap="round" stroke-linejoin="round"/>
</svg>
