<svg xmlns="http://www.w3.org/2000/svg" width="52" height="51" viewBox="0 0 52 51" fill="none"><path d="M9.5577 0.364014H42.4421C47.4277 0.364014 51.4587 4.395 51.4587 9.38069V40.9921C51.4587 45.9778 47.4277 50.0088 42.4421 50.0088H9.5577C4.572 50.0088 0.541016 45.9778 0.541016 40.9921V9.38069C0.541016 4.395 4.572 0.364014 9.5577 0.364014Z" fill="#EB1000"/><path d="M40.1292 37.7036H34.0827C33.5523 37.7036 33.0643 37.4066 32.8522 36.8974L26.2965 21.5373C26.2541 21.3888 26.0844 21.3039 25.9358 21.3463C25.851 21.3675 25.7661 21.4524 25.7449 21.5373L21.6503 31.2753C21.5654 31.445 21.6503 31.6572 21.8412 31.7208C21.8836 31.742 21.9261 31.742 21.9685 31.742H26.4662C26.742 31.742 26.9966 31.9117 27.1027 32.1663L29.0758 36.558C29.2455 36.9611 29.0546 37.4491 28.6515 37.6188C28.5454 37.6612 28.4393 37.6824 28.3332 37.6824H11.9335C11.5304 37.6824 11.1909 37.343 11.1909 36.9399C11.1909 36.8338 11.2121 36.7489 11.2546 36.6429L21.6715 11.8417C21.8836 11.3113 22.414 10.9506 22.9869 10.9718H28.9909C29.5637 10.9718 30.0941 11.3113 30.3063 11.8417L40.8081 36.6429C40.9778 37.0247 40.7868 37.4703 40.4262 37.6188C40.3201 37.6612 40.2352 37.6824 40.1292 37.7036Z" fill="white"/></svg>