<svg width="13" height="17" viewBox="0 0 13 17" fill="none" xmlns="http://www.w3.org/2000/svg">
<path d="M1.6 0.5C1.17565 0.5 0.768687 0.668571 0.468629 0.968629C0.168571 1.26869 0 1.67565 0 2.1V14.9C0 15.3243 0.168571 15.7313 0.468629 16.0314C0.768687 16.3314 1.17565 16.5 1.6 16.5H11.2C11.6243 16.5 12.0313 16.3314 12.3314 16.0314C12.6314 15.7313 12.8 15.3243 12.8 14.9V5.3L8 0.5H1.6ZM1.6 2.1H7.2V6.1H11.2V14.9H1.6V2.1ZM3.2 8.5V10.1H9.6V8.5H3.2ZM3.2 11.7V13.3H7.2V11.7H3.2Z" fill="#1B9876"/>
</svg>
