<svg xmlns="http://www.w3.org/2000/svg" width="96" height="31" viewBox="0 0 96 31" fill="none"><path fill-rule="evenodd" clip-rule="evenodd" d="M11.911 10.6887V13.896H19.5842C19.3547 15.6999 18.7534 17.0159 17.8377 17.9329C16.7213 19.0494 14.9735 20.2806 11.911 20.2806C7.18675 20.2806 3.49294 16.472 3.49294 11.7478C3.49294 7.02362 7.18675 3.21633 11.911 3.21633C14.4583 3.21633 16.3195 4.21804 17.6943 5.5067L19.9559 3.24503C18.0373 1.41247 15.49 0.0090332 11.911 0.0090332C5.44028 0.0090332 0 5.27714 0 11.7478C0 18.2185 5.44028 23.4866 11.911 23.4866C15.4039 23.4866 18.0373 22.3414 20.0994 20.1945C22.2176 18.075 22.8763 15.0986 22.8763 12.6922C22.8763 11.9487 22.8202 11.2613 22.7041 10.6887H11.911Z" fill="#4285F4"/><path fill-rule="evenodd" clip-rule="evenodd" d="M32.4677 20.2525C30.1722 20.2525 28.1909 18.3587 28.1909 15.66C28.1909 12.9353 30.1722 11.0689 32.4677 11.0689C34.7633 11.0689 36.7433 12.9353 36.7433 15.66C36.7433 18.3587 34.7633 20.2525 32.4677 20.2525ZM32.4677 8.08459C28.2783 8.08459 24.8623 11.2697 24.8623 15.66C24.8623 20.023 28.2783 23.2381 32.4677 23.2381C36.6572 23.2381 40.0732 20.023 40.0732 15.66C40.0732 11.2697 36.6572 8.08459 32.4677 8.08459Z" fill="#E94235"/><path fill-rule="evenodd" clip-rule="evenodd" d="M65.9297 20.2525C63.6342 20.2525 61.8838 18.3013 61.8838 15.6613C61.8838 12.9914 63.6342 11.0689 65.9297 11.0689C68.1966 11.0689 69.9757 13.0214 69.9757 15.69C69.9757 18.33 68.1966 20.2525 65.9297 20.2525ZM69.7449 9.77759H69.6301C68.884 8.88805 67.4493 8.08459 65.6415 8.08459C61.8538 8.08459 58.5552 11.3845 58.5552 15.6613C58.5552 19.9082 61.8538 23.2381 65.6415 23.2381C67.4493 23.2381 68.884 22.4333 69.6301 21.5151H69.7449V22.5755C69.7449 25.4737 68.1953 27.0232 65.6989 27.0232C63.6616 27.0232 62.3977 25.5598 61.8812 24.3259L58.983 25.5311C59.8164 27.5397 62.0246 30.0088 65.6989 30.0088C69.6014 30.0088 72.9026 27.7119 72.9026 22.1164V8.47458H69.7449V9.77759Z" fill="#4285F4"/><path fill-rule="evenodd" clip-rule="evenodd" d="M49.4238 20.2525C47.1282 20.2525 45.1483 18.3587 45.1483 15.66C45.1483 12.9353 47.1282 11.0689 49.4238 11.0689C51.7194 11.0689 53.6993 12.9353 53.6993 15.66C53.6993 18.3587 51.7194 20.2525 49.4238 20.2525ZM49.4238 8.08459C45.2344 8.08459 41.8184 11.2697 41.8184 15.66C41.8184 20.023 45.2344 23.2381 49.4238 23.2381C53.6132 23.2381 57.0292 20.023 57.0292 15.66C57.0292 11.2697 53.6132 8.08459 49.4238 8.08459Z" fill="#FBBC04"/><path fill-rule="evenodd" clip-rule="evenodd" d="M75.5098 23.2378H78.7836V0.322388H75.5098V23.2378Z" fill="#34A853"/><path fill-rule="evenodd" clip-rule="evenodd" d="M88.6522 10.9234C89.9996 10.9234 91.1409 11.6095 91.5217 12.5955L84.6793 15.4311C84.6793 12.2368 86.9384 10.9234 88.6522 10.9234ZM88.8987 20.2531C87.2058 20.2531 86.0006 19.4784 85.2245 17.9575L95.3551 13.7668L95.0107 12.9059C94.3795 11.2129 92.4569 8.08521 88.5257 8.08521C84.6219 8.08521 81.3794 11.1556 81.3794 15.6606C81.3794 19.9088 84.5932 23.2374 88.8987 23.2374C92.3708 23.2374 94.3795 21.114 95.2129 19.8801L92.6291 18.1571C91.7682 19.421 90.5917 20.2531 88.8987 20.2531Z" fill="#E94235"/></svg>