<svg width="100" height="65" viewBox="0 0 100 65" fill="none" xmlns="http://www.w3.org/2000/svg">
<path opacity="0.2" d="M50.1274 0.979248C22.9835 0.979248 0.900391 22.9762 0.900391 50.014C0.900391 51.6069 2.19183 52.8983 3.78479 52.8983H21.2834C22.8764 52.8983 24.1678 51.6069 24.1678 50.014C24.1678 35.8587 35.6818 24.0544 50.1274 24.0544C55.972 24.0544 61.3708 25.9964 65.7145 29.268L43.9284 43.1662C40.5856 45.2987 38.5898 48.9369 38.5898 52.8983C38.5898 59.2602 43.7656 64.4359 50.1274 64.4359C54.5961 64.4359 58.7031 61.8175 60.5904 57.7653L71.2325 34.9159C74.2865 39.1729 76.0869 44.3869 76.0869 50.014C76.0869 51.6069 77.3784 52.8983 78.9713 52.8983H96.47C98.063 52.8983 99.3544 51.6069 99.3544 50.014C99.3544 22.9762 77.2713 0.979248 50.1274 0.979248ZM18.5315 47.1296H6.76802C7.41912 37.3309 11.3604 28.4143 17.5009 21.4667L25.756 29.7219C21.7442 34.5321 19.128 40.5435 18.5315 47.1296ZM47.243 18.4181C40.657 19.0146 34.6455 21.6307 29.8353 25.6427L21.5973 17.4047C28.5577 11.361 37.4637 7.48683 47.243 6.84572V18.4181ZM55.361 55.3297C54.4169 57.3572 52.3624 58.6671 50.1274 58.6671C46.9465 58.6671 44.3586 56.0793 44.3586 52.8983C44.3586 50.9172 45.3576 49.0971 47.0309 48.0297L63.7192 37.3836L55.361 55.3297ZM70.4195 25.6427C65.6093 21.6309 59.5978 19.0146 53.0118 18.4181V6.84495C62.7909 7.48606 71.6959 11.3619 78.6564 17.4059L70.4195 25.6427ZM81.7233 47.1296C81.1268 40.5435 78.5106 34.5321 74.4986 29.7219L82.7541 21.4663C88.8948 28.4143 92.8387 37.3309 93.49 47.1296H81.7233Z" fill="#091E21"/>
</svg>
