<svg width="143" height="150" viewBox="0 0 143 150" fill="none" xmlns="http://www.w3.org/2000/svg">
<path opacity="0.4" d="M1.23651 0L10.3222 3.02267C25.8935 8.42225 42.5215 10.0792 58.855 7.85894C76.0183 5.20059 93.5857 7.56285 109.432 14.66C117.833 18.2301 125.205 23.8407 130.878 30.9809C136.551 38.1212 140.345 46.5643 141.913 55.5416C143.509 64.1747 143.346 73.0402 141.434 81.609C139.521 90.1778 135.899 98.2744 130.783 105.416C131.238 107.003 131.692 108.589 132.071 110.176C135.146 123.227 136.671 136.593 136.613 150H121.471C120.759 139.026 119.266 128.117 117.004 117.355C106.499 123.017 94.7182 125.904 82.7807 125.743C71.6471 125.735 60.628 123.5 50.375 119.169C-7.24348 94.6096 0.327942 12.9219 0.327942 9.52141L1.23651 0ZM56.2807 105.264C76.0421 113.652 99.665 112.217 112.915 101.864C110.676 94.3906 107.603 87.1919 103.754 80.403C100.761 75.5169 97.2313 70.98 93.2293 66.8766C89.1399 62.7294 84.5342 59.1231 79.525 56.1461C69.1743 49.9689 57.695 45.9102 45.7565 44.2065V36.6499C59.4927 36.1753 73.1446 38.9729 85.5821 44.8111C98.2989 51.0041 109.084 60.5399 116.776 72.3929C119.63 76.92 122.16 81.642 124.348 86.5239C127.857 77.5644 128.852 67.8193 127.225 58.3375C126.159 51.6992 123.417 45.4411 119.258 40.1529C115.099 34.8647 109.659 30.7205 103.451 28.1108C94.3982 23.8879 84.5203 21.72 74.5279 21.7632C69.8336 21.7632 65.215 22.2166 60.3693 22.5945C45.1937 24.5486 29.7858 23.6516 14.9408 19.9496C15.4708 40.806 19.2565 89.5466 56.2807 105.264Z" fill="#091E21"/>
</svg>
