<svg width="46" height="48" viewBox="0 0 46 48" fill="none" xmlns="http://www.w3.org/2000/svg">
<path opacity="0.2" d="M45.2485 0L42.3485 0.966666C37.3784 2.69348 32.071 3.22339 26.8576 2.51333C21.3794 1.66318 15.7722 2.41864 10.7143 4.68833C8.03296 5.83008 5.67978 7.62438 3.86903 9.90787C2.05827 12.1914 0.847449 14.8915 0.346797 17.7625C-0.162472 20.5234 -0.110377 23.3586 0.499974 26.099C1.11033 28.8394 2.26643 31.4287 3.8993 33.7125C3.7543 34.22 3.6093 34.7275 3.48846 35.235C2.50691 39.4086 2.02023 43.6834 2.03846 47.9708H6.8718C7.09896 44.4614 7.57544 40.9726 8.29763 37.5308C11.6506 39.3414 15.4107 40.2648 19.221 40.2133C22.7746 40.2109 26.2917 39.496 29.5643 38.1108C47.9551 30.2567 45.5385 4.1325 45.5385 3.045L45.2485 0ZM27.6793 33.6642C21.3718 36.3467 13.8318 35.8875 9.60263 32.5767C10.3174 30.1867 11.2983 27.8845 12.5268 25.7133C13.4819 24.1507 14.6086 22.6998 15.886 21.3875C17.1912 20.0612 18.6613 18.9079 20.2601 17.9558C23.5639 15.9803 27.2279 14.6823 31.0385 14.1375V11.7208C26.6541 11.5691 22.2966 12.4637 18.3268 14.3308C14.2678 16.3114 10.8255 19.361 8.37013 23.1517C7.45946 24.5994 6.6519 26.1096 5.95346 27.6708C4.83339 24.8055 4.51589 21.689 5.03513 18.6567C5.37533 16.5337 6.25047 14.5323 7.57807 12.8411C8.90566 11.1499 10.642 9.82457 12.6235 8.99C15.5129 7.63947 18.6657 6.94617 21.8551 6.96C23.3535 6.96 24.8276 7.105 26.3743 7.22583C31.2181 7.85079 36.136 7.56391 40.8743 6.38C40.7051 13.05 39.4968 28.6375 27.6793 33.6642Z" fill="#091E21"/>
</svg>
