<svg xmlns="http://www.w3.org/2000/svg" width="9" height="13" viewBox="0 0 9 13" fill="none">
<path d="M8.98421 12.2102L8.9842 1.40988C8.98386 1.30053 8.9537 1.19335 8.89698 1.09986C8.84025 1.00638 8.7591 0.930139 8.66226 0.879346C8.56543 0.828552 8.45657 0.805129 8.34742 0.811599C8.23826 0.818069 8.13294 0.854187 8.04278 0.916064L0.242557 6.31622C-0.0808526 6.54002 -0.0808526 7.07884 0.242557 7.30325L8.04278 12.7034C8.13275 12.7659 8.23813 12.8026 8.34746 12.8094C8.4568 12.8162 8.56592 12.7929 8.66296 12.7421C8.76 12.6913 8.84125 12.6148 8.89789 12.521C8.95452 12.4272 8.98438 12.3197 8.98421 12.2102Z" fill="#1B9876"/>
</svg>