<svg xmlns="http://www.w3.org/2000/svg" width="9" height="13" viewBox="0 0 9 13" fill="none">
<path d="M-7.44128e-05 1.41091L-7.48849e-05 12.2112C0.000267479 12.3206 0.0304265 12.4277 0.0871548 12.5212C0.143882 12.6147 0.22503 12.691 0.321866 12.7417C0.418701 12.7925 0.527556 12.816 0.636713 12.8095C0.74587 12.803 0.851195 12.7669 0.941352 12.705L8.74157 7.30488C9.06498 7.08107 9.06498 6.54225 8.74157 6.31785L0.941353 0.917694C0.851384 0.855187 0.746005 0.818531 0.636666 0.81171C0.527328 0.804888 0.418211 0.828162 0.321171 0.879001C0.22413 0.929841 0.142878 1.0063 0.0862417 1.10008C0.0296058 1.19385 -0.000247023 1.30136 -7.44128e-05 1.41091Z" fill="#1B9876"/>
</svg>