<svg width="130" height="101" viewBox="0 0 130 101" fill="none" xmlns="http://www.w3.org/2000/svg">
<path d="M59.3396 29C55.6239 29 52.1918 30.837 50.1253 33.8978L42.3907 45.3295C41.4804 46.6774 40.9963 48.2627 41 49.8835V68.1022C40.9949 69.323 41.4028 70.5104 42.1587 71.4756C42.9146 72.4408 43.9753 73.1284 45.1719 73.429L52.3865 75.2357C52.9053 77.7073 54.2681 79.9272 56.2462 81.523C58.2242 83.1188 60.6971 83.9934 63.25 84C68.4009 84 72.7007 80.4772 73.9412 75.75H99.8401C101.081 80.4772 105.38 84 110.531 84C115.682 84 119.982 80.4772 121.222 75.75H124.438C127.48 75.75 130 73.2585 130 70.25V60.196C129.997 57.7448 129.166 55.3648 127.639 53.434C126.112 51.5033 123.975 50.1326 121.57 49.5397L106.532 45.7585L95.6683 32.9545C94.629 31.718 93.3274 30.7228 91.8556 30.0394C90.3839 29.356 88.7781 29.0011 87.1521 29H59.3396ZM59.3396 34.5H71.5938V45.5H48.9961L54.7339 36.9915V36.9062C55.2378 36.1579 55.9227 35.5458 56.7265 35.1256C57.5304 34.7054 58.4276 34.4904 59.3368 34.5H59.3396ZM77.1563 34.5H87.1521C88.8014 34.5 90.3561 35.2205 91.4102 36.4772L99.0586 45.5H77.1563V34.5ZM46.5625 51H104.621L120.266 54.8665C121.466 55.161 122.531 55.8474 123.288 56.8145C124.045 57.7817 124.45 58.9731 124.438 60.196V70.25H121.222C119.982 65.5228 115.682 62 110.531 62C105.38 62 101.081 65.5228 99.8401 70.25H73.9412C72.7007 65.5228 68.4009 62 63.25 62C58.3189 62 54.1776 65.223 52.7341 69.6478L46.5625 68.105V51ZM63.25 67.5C66.3567 67.5 68.8125 69.9282 68.8125 73C68.8125 76.0718 66.3567 78.5 63.25 78.5C60.1434 78.5 57.6875 76.0718 57.6875 73C57.6875 69.9282 60.1434 67.5 63.25 67.5ZM110.531 67.5C113.638 67.5 116.094 69.9282 116.094 73C116.094 76.0718 113.638 78.5 110.531 78.5C107.425 78.5 104.969 76.0718 104.969 73C104.969 69.9282 107.425 67.5 110.531 67.5Z" fill="white"/>
<line x1="56.5" y1="98.5" x2="114.5" y2="98.5" stroke="white" stroke-width="5" stroke-linecap="round" stroke-linejoin="round"/>
<path d="M28.25 0C27.6367 0 27.0485 0.227176 26.6148 0.631551C26.1811 1.03593 25.9375 1.58438 25.9375 2.15625V12.9375H12.0625V2.15625C12.0625 1.58438 11.8189 1.03593 11.3852 0.631551C10.9515 0.227176 10.3633 0 9.75 0C9.13669 0 8.54849 0.227176 8.11481 0.631551C7.68114 1.03593 7.4375 1.58438 7.4375 2.15625V12.9375H2.8125C2.19919 12.9375 1.61099 13.1647 1.17731 13.5691C0.743637 13.9734 0.5 14.5219 0.5 15.0938V28.0312C0.5 32.0344 2.20546 35.8735 5.24121 38.7041C8.27695 41.5348 12.3943 43.125 16.6875 43.125C16.6968 44.9966 16.7337 46.7691 16.8725 48.3862C17.0621 50.6029 17.4553 52.7117 18.3386 54.5272C19.2342 56.4474 20.821 58.0154 22.8249 58.9605C24.8969 59.9437 27.4684 60.375 30.5625 60.375C35.1783 60.375 38.0087 61.7981 39.6922 63.4714C41.2122 64.9681 42.0796 66.9392 42.125 69H46.75C46.75 66.3435 45.677 63.1048 43.0639 60.513C40.3953 57.8737 36.2929 56.0625 30.5625 56.0625C27.8754 56.0625 26.1133 55.683 24.9293 55.1181C23.8146 54.5876 23.0793 53.8243 22.552 52.7462C21.9924 51.5991 21.6594 50.0681 21.4883 48.0456C21.3634 46.5793 21.3264 44.9492 21.3171 43.125C25.6095 43.1239 29.7257 41.5331 32.7604 38.7026C35.7952 35.8721 37.5 32.0336 37.5 28.0312V15.0938C37.5 14.5219 37.2564 13.9734 36.8227 13.5691C36.389 13.1647 35.8008 12.9375 35.1875 12.9375H30.5625V2.15625C30.5625 1.58438 30.3189 1.03593 29.8852 0.631551C29.4515 0.227176 28.8633 0 28.25 0V0ZM32.875 17.25V28.0312C32.875 30.8906 31.6568 33.6329 29.4884 35.6547C27.32 37.6766 24.3791 38.8125 21.3125 38.8125H16.6875C13.6209 38.8125 10.68 37.6766 8.51158 35.6547C6.34319 33.6329 5.125 30.8906 5.125 28.0312V17.25H32.875Z" fill="white"/>
</svg>
