<svg width="73" height="73" viewBox="0 0 73 73" fill="none" xmlns="http://www.w3.org/2000/svg">
<path fill-rule="evenodd" clip-rule="evenodd" d="M38.7512 43.5727C36.5675 46.0363 33.6427 47.7239 30.417 48.3816V57.8108C30.417 58.6175 30.0965 59.3911 29.5261 59.9616C28.9557 60.532 28.182 60.8524 27.3753 60.8524C26.5686 60.8524 25.795 60.532 25.2246 59.9616C24.6541 59.3911 24.3337 58.6175 24.3337 57.8108V48.3816C20.899 47.6794 17.8123 45.8125 15.5954 43.0968C13.3785 40.3811 12.1674 36.9831 12.167 33.4774V15.2274C12.1621 11.31 13.669 7.54181 16.3737 4.70798C19.0784 1.87414 22.7723 0.193288 26.6857 0.0156569C30.5991 -0.161975 34.4301 1.17732 37.3804 3.75447C40.3308 6.33161 42.1728 9.94782 42.5228 13.8496C44.3715 12.768 46.4729 12.1935 48.6146 12.1843C50.7564 12.1751 52.8627 12.7314 54.7205 13.7971C56.5784 14.8627 58.122 16.3999 59.1954 18.2533C60.2688 20.1067 60.8339 22.2106 60.8337 24.3524V36.5191C60.8333 39.2167 59.9369 41.8377 58.2853 43.9705C56.6336 46.1033 54.3203 47.6271 51.7087 48.3025V57.8108C51.7087 58.6175 51.3882 59.3911 50.8178 59.9616C50.2474 60.532 49.4737 60.8524 48.667 60.8524C47.8603 60.8524 47.0866 60.532 46.5162 59.9616C45.9458 59.3911 45.6253 58.6175 45.6253 57.8108V48.3025C42.8486 47.5843 40.4143 45.9094 38.7512 43.5727ZM36.5003 15.2274V33.4774C36.5009 35.3652 35.9162 37.2066 34.8267 38.7482C33.7372 40.2898 32.1966 41.4557 30.417 42.0854V33.4774C30.417 32.6707 30.0965 31.8971 29.5261 31.3267C28.9557 30.7562 28.182 30.4358 27.3753 30.4358C26.5686 30.4358 25.795 30.7562 25.2246 31.3267C24.6541 31.8971 24.3337 32.6707 24.3337 33.4774V42.0854C22.5541 41.4557 21.0134 40.2898 19.924 38.7482C18.8345 37.2066 18.2498 35.3652 18.2503 33.4774V15.2274C18.2503 12.8073 19.2117 10.4864 20.923 8.77509C22.6343 7.06382 24.9552 6.10244 27.3753 6.10244C29.7954 6.10244 32.1164 7.06382 33.8277 8.77509C35.539 10.4864 36.5003 12.8073 36.5003 15.2274ZM51.7087 41.7873V33.4774C51.7087 32.6707 51.3882 31.8971 50.8178 31.3267C50.2474 30.7562 49.4737 30.4358 48.667 30.4358C47.8603 30.4358 47.0866 30.7562 46.5162 31.3267C45.9458 31.8971 45.6253 32.6707 45.6253 33.4774V41.7873C44.7006 41.2534 43.9326 40.4854 43.3987 39.5607C42.8648 38.6359 42.5837 37.5869 42.5837 36.5191V24.3524C42.5837 22.739 43.2246 21.1917 44.3654 20.0509C45.5063 18.91 47.0536 18.2691 48.667 18.2691C50.2804 18.2691 51.8277 18.91 52.9686 20.0509C54.1094 21.1917 54.7503 22.739 54.7503 24.3524V36.5191C54.7503 37.5869 54.4692 38.6359 53.9353 39.5607C53.4014 40.4854 52.6334 41.2534 51.7087 41.7873Z" fill="white"/>
<line x1="7.5" y1="70.5" x2="65.5" y2="70.5" stroke="white" stroke-width="5" stroke-linecap="round" stroke-linejoin="round"/>
</svg>
